<?xml version="1.0" encoding="utf-8" ?><svg xmlns="http://www.w3.org/2000/svg" xmlns:xlink="http://www.w3.org/1999/xlink" width="1024" height="1024" viewBox="215 165 600 600"><path fill="#EBF2FA" d="M0 0L1024 0L1024 1024L0 1024L0 0Z"/><path fill="#427AA1" d="M356.813 246.701C360.479 246.166 376.14 246.441 380.49 246.442L430.85 246.46L522.98 246.491C536.733 246.493 556.036 245.78 569.287 246.545C574.304 246.862 579.251 247.891 583.978 249.603C597.928 254.555 610.064 264.952 616.407 278.41C618.709 283.379 620.293 288.651 621.112 294.066C622.343 301.932 622.408 333.082 621.412 341.335C620.843 345.775 619.786 350.139 618.261 354.348C613.293 368.127 603.042 379.361 589.775 385.567C575.935 392.02 564.514 390.977 549.866 390.533C529.167 389.906 523.938 371.82 507.422 365.827C503.969 364.574 500.377 363.744 496.724 363.355C491.173 362.761 480.122 362.987 474.173 363.003C466.153 363.025 453.613 362.643 446 363.742C440.702 364.468 435.543 365.987 430.696 368.249C417.176 374.672 408.805 385.178 403.837 399.003C401.062 409.098 401.888 424.184 401.899 435.1L401.978 511.689C401.974 521.424 402.562 542.497 401.022 551.131C399.742 558.451 396.721 565.356 392.215 571.265C384.26 581.397 372.635 587.989 359.857 589.615C345.992 591.272 332.007 586.859 321.03 578.421C297.904 560.647 300.455 538.062 300.533 512.39L300.835 449.337C300.511 415.185 300.432 381.031 300.599 346.878L300.584 317.68C300.582 306.636 300.015 297.061 303.666 286.47C311.831 262.789 332.515 249.054 356.813 246.701Z"/><path fill="#EBF2FA" d="M403.031 280.129C441.311 279.455 481.685 280.053 520.119 280.074L519.947 307.82L403.02 307.666L403.031 280.129Z"/><path fill="#427AA1" d="M649.671 378.187C665.113 377.042 684.989 378.292 700.535 378.593C710.929 378.794 727.051 393.907 727.12 404.689C727.214 419.554 730.009 446.253 727.209 460.276C726.249 465.078 724.247 469.611 721.343 473.554C700.327 501.733 656.578 473.064 633.95 496.185C614.152 516.416 634.343 549.92 617.204 572.17C599.46 595.207 573.191 584.427 549.382 587.83C543.408 588.692 537.808 591.254 533.251 595.211C506.178 618.588 542.757 671.408 499.857 686.455C497.567 687.258 494.668 687.532 492.252 687.833C485.018 688.292 444.497 688.361 438.869 687.142C433.988 686.099 429.421 683.923 425.537 680.788C419.379 675.773 413.8 665.902 413.911 658.474C414.085 646.77 412.55 614.036 414.745 604.079C415.833 599.032 418.131 594.325 421.443 590.365C441.673 566.41 484.381 590.111 506.509 570.76C529.162 550.951 506.283 512.799 524.608 490.615C540.974 470.805 569.053 481.141 591.206 478.032C639.636 470.059 606.456 416.159 626.613 389.624C631.996 382.537 641.204 379.015 649.671 378.187Z"/><path fill="#427AA1" d="M650.265 580.16C656.714 579.785 666.049 580.063 672.758 579.965C679.616 579.865 693.82 579.408 700.22 580.602C704.952 581.49 709.454 583.334 713.449 586.022C720.739 591.009 725.729 598.708 727.303 607.4C728.425 613.685 728.206 656.064 727.055 662.13C726.182 666.781 724.305 671.185 721.553 675.035C715.737 683.126 708.32 686.449 698.798 687.943C690.56 688.063 676.67 687.349 668.957 688.026C641.437 690.44 618.991 682.282 620.118 650.476C620.55 638.284 618.482 618.392 620.88 606.144C621.814 601.31 623.832 596.751 626.782 592.81C632.634 585.15 640.92 581.451 650.265 580.16Z"/><path fill="#427AA1" d="M450.78 378.718L474.816 378.661C489.022 378.634 499.986 377.394 511.36 387.74C525.798 400.874 522.288 419.933 522.664 437.324C522.976 451.799 523.954 465.705 513.174 476.815C506.51 483.683 499.419 486.396 489.866 486.664L465.649 486.838C451.87 486.94 440.02 488.22 428.866 478.6C422.507 473.239 418.369 464.537 418.146 456.19C417.817 442.182 418.045 428.078 417.962 414.067C417.907 404.934 420.324 396.711 426.473 389.812C432.965 382.529 441.255 379.337 450.78 378.718Z"/></svg>